<svg xmlns="http://www.w3.org/2000/svg" version="1.1" style="font-family:Lato, &#x27;Helvetica Neue&#x27;, Helvetica, Arial, sans-serif;font-size:18px;background-color:white;text-rendering:optimizeLegibility;-webkit-font-smoothing:antialiased" width="850" height="600" viewBox="0 0 850 600"><g class="HeaderView"><g transform="translate(774, 15) scale(0.29)"><svg className="owidLog" width="210" height="120" viewBox="0 0 210 120" fill="none" xmlns="http://www.w3.org/2000/svg">
<g clip-path="url(#clip0)">
  <path d="M0 0h210v107.89H0V0z" fill="#002147" />
  <path
    d="M40.98 32.25c0 2.36-.38 4.53-1.12 6.51a14.26 14.26 0 0 1-8.1 8.4c-1.9.78-4.02 1.17-6.34 1.17-2.31 0-4.42-.39-6.33-1.17a14.31 14.31 0 0 1-8.08-8.4 18.29 18.29 0 0 1-1.12-6.51c0-2.36.38-4.53 1.12-6.5.75-1.97 1.8-3.67 3.17-5.1a14.32 14.32 0 0 1 4.9-3.34c1.92-.8 4.03-1.19 6.34-1.19 2.32 0 4.43.4 6.34 1.19 1.92.8 3.56 1.9 4.93 3.34a14.87 14.87 0 0 1 3.17 5.1 18.1 18.1 0 0 1 1.12 6.5zm-4.38 0c0-1.94-.26-3.68-.8-5.22a10.91 10.91 0 0 0-2.24-3.89 9.68 9.68 0 0 0-3.52-2.46 11.95 11.95 0 0 0-4.62-.86c-1.68 0-3.21.28-4.6.86a9.88 9.88 0 0 0-3.54 2.46 10.91 10.91 0 0 0-2.24 3.9c-.53 1.53-.8 3.27-.8 5.2 0 1.94.27 3.68.8 5.22a11.17 11.17 0 0 0 2.24 3.9 10.01 10.01 0 0 0 3.55 2.44c1.38.56 2.9.83 4.6.83s3.24-.27 4.61-.83a9.8 9.8 0 0 0 3.52-2.44 11.17 11.17 0 0 0 2.25-3.9c.53-1.54.8-3.28.8-5.21zm26.22-6.54V48H60.5c-.56 0-.9-.27-1.05-.81l-.31-2.4a12.45 12.45 0 0 1-3.26 2.6c-1.2.64-2.58.96-4.13.96-1.22 0-2.3-.2-3.24-.6a6.52 6.52 0 0 1-2.33-1.7 7.37 7.37 0 0 1-1.43-2.67c-.3-1.04-.46-2.2-.46-3.45V25.7h3.91v14.22c0 1.68.38 2.99 1.15 3.91.77.93 1.96 1.39 3.54 1.39 1.16 0 2.24-.27 3.23-.82a10.42 10.42 0 0 0 2.8-2.28V25.7h3.91zm8.61 4.47a9.94 9.94 0 0 1 2.6-3.56 5.64 5.64 0 0 1 3.76-1.3c.47 0 .92.05 1.34.15.44.1.83.27 1.17.49l-.3 2.92c-.09.37-.3.55-.66.55-.2 0-.5-.04-.9-.13a6.21 6.21 0 0 0-3.24.18 4.23 4.23 0 0 0-1.47.92c-.42.4-.81.9-1.17 1.5-.33.58-.64 1.26-.92 2.02V48H67.7V25.71h2.25c.42 0 .72.08.88.25.16.16.27.44.33.83l.26 3.39zm61.16-13.7L122.75 48h-3.82l-7.99-24.05a21.95 21.95 0 0 1-.42-1.58 38.36 38.36 0 0 1-.44 1.58L102.05 48h-3.83L88.4 16.47h3.54c.38 0 .7.1.95.29.26.2.43.43.5.73l6.52 21.9.28 1.28.29 1.46.3-1.46.38-1.27 7.41-21.91c.1-.25.26-.48.51-.69.27-.22.58-.33.95-.33h1.23c.38 0 .69.1.92.29a1.77 1.77 0 0 1 .53.73l7.4 21.9a28.4 28.4 0 0 1 .68 2.62 29.52 29.52 0 0 1 .52-2.61l6.54-21.91a1.31 1.31 0 0 1 .48-.7c.27-.21.58-.32.95-.32h3.32zm9.35 8.88c1.63 0 3.1.27 4.4.82a9.43 9.43 0 0 1 5.46 5.94c.5 1.4.74 2.98.74 4.73 0 1.76-.25 3.34-.74 4.75a9.43 9.43 0 0 1-5.46 5.92c-1.3.52-2.77.79-4.4.79-1.64 0-3.12-.27-4.44-.8a9.42 9.42 0 0 1-3.35-2.3c-.92-1-1.63-2.2-2.13-3.61-.49-1.41-.73-3-.73-4.75s.24-3.33.73-4.73c.5-1.43 1.2-2.64 2.13-3.63.93-1 2.04-1.77 3.35-2.31 1.32-.55 2.8-.82 4.44-.82zm0 19.89c2.2 0 3.84-.73 4.93-2.2 1.08-1.48 1.63-3.54 1.63-6.18 0-2.66-.55-4.72-1.63-6.2-1.09-1.49-2.73-2.23-4.93-2.23-1.12 0-2.09.2-2.93.57a5.71 5.71 0 0 0-2.06 1.65c-.55.72-.96 1.61-1.24 2.67-.26 1.04-.4 2.22-.4 3.54 0 2.64.55 4.7 1.64 6.18 1.1 1.47 2.76 2.2 4.99 2.2zm17.97-15.07a9.94 9.94 0 0 1 2.6-3.56 5.64 5.64 0 0 1 3.76-1.3c.47 0 .91.05 1.34.15.44.1.83.27 1.16.49l-.28 2.92c-.09.37-.31.55-.66.55-.2 0-.5-.04-.9-.13a6.2 6.2 0 0 0-3.24.18 4.23 4.23 0 0 0-1.47.92c-.43.4-.82.9-1.17 1.5a13.1 13.1 0 0 0-.92 2.02V48h-3.94V25.71h2.24c.43 0 .72.08.88.25.17.16.28.44.33.83l.27 3.39zm15.04-14.59V48h-3.92V15.6h3.92zm19.55 15.43a6.22 6.22 0 0 0-2.38-2.05 6.7 6.7 0 0 0-2.86-.6c-2.07 0-3.66.75-4.77 2.23-1.12 1.48-1.68 3.6-1.68 6.33 0 1.46.13 2.7.38 3.74a7.29 7.29 0 0 0 1.1 2.56 4.35 4.35 0 0 0 1.78 1.45c.7.3 1.5.46 2.4.46 1.29 0 2.41-.3 3.36-.88a9.6 9.6 0 0 0 2.67-2.49V31.02zm3.91-15.43V48h-2.33c-.56 0-.9-.27-1.06-.81l-.35-2.71a12.13 12.13 0 0 1-3.25 2.77 8.28 8.28 0 0 1-4.23 1.06 7.31 7.31 0 0 1-6.14-2.9c-.73-.96-1.3-2.15-1.69-3.57a18.35 18.35 0 0 1 .07-9.48 11.29 11.29 0 0 1 1.89-3.7 8.7 8.7 0 0 1 7.06-3.34 7.96 7.96 0 0 1 6.12 2.62V15.59h3.91zM46.61 70.71V93H42.7V70.71h3.91zm.84-7c0 .39-.08.75-.24 1.09-.15.32-.35.61-.62.88-.25.25-.55.44-.9.59a2.67 2.67 0 0 1-2.16 0 2.9 2.9 0 0 1-1.45-1.47 2.67 2.67 0 0 1 0-2.16c.15-.35.35-.65.6-.9.25-.27.53-.47.85-.62a2.67 2.67 0 0 1 2.16 0c.35.15.65.35.9.62.27.25.47.55.62.9.16.34.24.7.24 1.08zm7.97 10.24c.49-.54 1-1.04 1.54-1.48a9.85 9.85 0 0 1 3.66-1.84 8.96 8.96 0 0 1 5.43.35c.94.4 1.72.97 2.33 1.71.63.74 1.11 1.62 1.43 2.67.32 1.04.49 2.19.49 3.45V93h-3.94V78.81c0-1.69-.4-3-1.17-3.92-.76-.93-1.93-1.4-3.5-1.4-1.15 0-2.24.27-3.25.83-1 .56-1.92 1.31-2.77 2.27V93h-3.94V70.71h2.35c.56 0 .9.28 1.04.82l.3 2.42zm57.7 3.3c0 2.36-.37 4.5-1.11 6.44a14.3 14.3 0 0 1-3.17 4.98c-1.37 1.37-3 2.45-4.93 3.2-1.9.76-4.02 1.13-6.33 1.13H85.8V61.47h11.77c2.31 0 4.42.39 6.33 1.15a13.8 13.8 0 0 1 8.1 8.18 17.75 17.75 0 0 1 1.12 6.45zm-4.37 0c0-1.94-.26-3.67-.8-5.2a10.94 10.94 0 0 0-2.23-3.87 9.57 9.57 0 0 0-3.53-2.42 12.23 12.23 0 0 0-4.61-.83h-7.5v24.62h7.5c1.7 0 3.24-.28 4.61-.84a9.7 9.7 0 0 0 3.53-2.4 10.94 10.94 0 0 0 2.24-3.87c.53-1.53.8-3.26.8-5.2zm19.8 5.72c-1.8.06-3.34.2-4.62.44-1.26.22-2.3.51-3.1.88-.8.36-1.37.8-1.74 1.3-.35.5-.53 1.05-.53 1.67 0 .58.1 1.1.3 1.52a3 3 0 0 0 .76 1.05c.34.27.73.46 1.17.6a6.13 6.13 0 0 0 1.45.17 7.28 7.28 0 0 0 3.5-.81 11.95 11.95 0 0 0 2.82-2.2v-4.62zm-12.65-9.11a12.73 12.73 0 0 1 3.98-2.66c1.43-.59 3-.88 4.73-.88 1.25 0 2.36.2 3.33.61a6.81 6.81 0 0 1 3.94 4.38c.33 1.04.5 2.19.5 3.43V93h-1.74a1.8 1.8 0 0 1-.88-.18c-.2-.13-.36-.38-.48-.74l-.44-2.12-1.72 1.46a9.48 9.48 0 0 1-3.74 1.7c-.69.15-1.46.23-2.3.23-.87 0-1.69-.12-2.45-.35a5.34 5.34 0 0 1-3.34-2.93 6.64 6.64 0 0 1-.49-2.64c0-.88.25-1.72.73-2.53a6.33 6.33 0 0 1 2.35-2.17c1.09-.63 2.5-1.15 4.25-1.54 1.75-.41 3.89-.65 6.42-.7v-1.75c0-1.73-.37-3.03-1.12-3.91-.75-.9-1.84-1.34-3.28-1.34-.97 0-1.78.12-2.44.37-.64.23-1.2.5-1.7.81l-1.23.82c-.33.23-.67.35-1 .35-.27 0-.5-.07-.69-.2a2.1 2.1 0 0 1-.48-.53l-.7-1.25zm27.67 19.5c-1.76 0-3.12-.5-4.07-1.48-.94-.98-1.41-2.4-1.41-4.25V74h-2.68a.9.9 0 0 1-.6-.2c-.16-.14-.24-.36-.24-.66v-1.56l3.65-.46.9-6.89c.05-.22.14-.4.29-.52a.88.88 0 0 1 .62-.22H142v7.67h6.44V74H142v13.38c0 .94.22 1.63.68 2.09.45.45 1.04.68 1.76.68a3.21 3.21 0 0 0 1.85-.53l.55-.35c.16-.12.3-.18.41-.18.2 0 .4.13.55.38l1.15 1.87a7.45 7.45 0 0 1-2.44 1.5 8.53 8.53 0 0 1-2.95.52zm19.68-10.4c-1.8.07-3.34.21-4.62.45-1.26.22-2.3.51-3.1.88-.8.36-1.37.8-1.74 1.3-.35.5-.53 1.05-.53 1.67 0 .58.1 1.1.3 1.52a2.9 2.9 0 0 0 .76 1.05c.34.27.73.46 1.17.6a6.13 6.13 0 0 0 1.45.17 7.3 7.3 0 0 0 3.5-.81 12.04 12.04 0 0 0 2.82-2.2v-4.62zm-12.65-9.1a12.72 12.72 0 0 1 3.99-2.66c1.42-.59 3-.88 4.72-.88 1.25 0 2.36.2 3.33.61a6.81 6.81 0 0 1 3.94 4.38c.33 1.04.5 2.19.5 3.43V93h-1.74a1.8 1.8 0 0 1-.88-.18c-.2-.13-.36-.38-.48-.74l-.44-2.12-1.72 1.46a9.48 9.48 0 0 1-3.74 1.7c-.69.15-1.46.23-2.3.23-.87 0-1.69-.12-2.45-.35a5.33 5.33 0 0 1-3.34-2.93 6.62 6.62 0 0 1-.49-2.64c0-.88.25-1.72.73-2.53a6.33 6.33 0 0 1 2.35-2.17c1.09-.63 2.5-1.15 4.25-1.54 1.74-.41 3.89-.65 6.42-.7v-1.75c0-1.73-.37-3.03-1.12-3.91-.75-.9-1.84-1.34-3.28-1.34-.97 0-1.78.12-2.44.37-.64.23-1.2.5-1.7.81l-1.22.82c-.34.23-.68.35-1.02.35-.26 0-.49-.07-.68-.2a1.88 1.88 0 0 1-.48-.53l-.7-1.25zM40.98 32.25c0 2.36-.38 4.53-1.12 6.51a14.26 14.26 0 0 1-8.1 8.4c-1.9.78-4.02 1.17-6.34 1.17-2.31 0-4.42-.39-6.33-1.17a14.31 14.31 0 0 1-8.08-8.4 18.29 18.29 0 0 1-1.12-6.51c0-2.36.38-4.53 1.12-6.5.75-1.97 1.8-3.67 3.17-5.1a14.32 14.32 0 0 1 4.9-3.34c1.92-.8 4.03-1.19 6.34-1.19 2.32 0 4.43.4 6.34 1.19 1.92.8 3.56 1.9 4.93 3.34a14.87 14.87 0 0 1 3.17 5.1 18.1 18.1 0 0 1 1.12 6.5zm-4.38 0c0-1.94-.26-3.68-.8-5.22a10.91 10.91 0 0 0-2.24-3.89 9.68 9.68 0 0 0-3.52-2.46 11.95 11.95 0 0 0-4.62-.86c-1.68 0-3.21.28-4.6.86a9.88 9.88 0 0 0-3.54 2.46 10.91 10.91 0 0 0-2.24 3.9c-.53 1.53-.8 3.27-.8 5.2 0 1.94.27 3.68.8 5.22a11.17 11.17 0 0 0 2.24 3.9 10.01 10.01 0 0 0 3.55 2.44c1.38.56 2.9.83 4.6.83s3.24-.27 4.61-.83a9.8 9.8 0 0 0 3.52-2.44 11.17 11.17 0 0 0 2.25-3.9c.53-1.54.8-3.28.8-5.21zm26.22-6.54V48H60.5c-.56 0-.9-.27-1.05-.81l-.31-2.4a12.45 12.45 0 0 1-3.26 2.6c-1.2.64-2.58.96-4.13.96-1.22 0-2.3-.2-3.24-.6a6.52 6.52 0 0 1-2.33-1.7 7.37 7.37 0 0 1-1.43-2.67c-.3-1.04-.46-2.2-.46-3.45V25.7h3.91v14.22c0 1.68.38 2.99 1.15 3.91.77.93 1.96 1.39 3.54 1.39 1.16 0 2.24-.27 3.23-.82a10.42 10.42 0 0 0 2.8-2.28V25.7h3.91zm8.61 4.47a9.94 9.94 0 0 1 2.6-3.56 5.64 5.64 0 0 1 3.76-1.3c.47 0 .92.05 1.34.15.44.1.83.27 1.17.49l-.3 2.92c-.09.37-.3.55-.66.55-.2 0-.5-.04-.9-.13a6.21 6.21 0 0 0-3.24.18 4.23 4.23 0 0 0-1.47.92c-.42.4-.81.9-1.17 1.5-.33.58-.64 1.26-.92 2.02V48H67.7V25.71h2.25c.42 0 .72.08.88.25.16.16.27.44.33.83l.26 3.39zm61.16-13.7L122.75 48h-3.82l-7.99-24.05a21.95 21.95 0 0 1-.42-1.58 38.36 38.36 0 0 1-.44 1.58L102.05 48h-3.83L88.4 16.47h3.54c.38 0 .7.1.95.29.26.2.43.43.5.73l6.52 21.9.28 1.28.29 1.46.3-1.46.38-1.27 7.41-21.91c.1-.25.26-.48.51-.69.27-.22.58-.33.95-.33h1.23c.38 0 .69.1.92.29a1.77 1.77 0 0 1 .53.73l7.4 21.9a28.4 28.4 0 0 1 .68 2.62 29.52 29.52 0 0 1 .52-2.61l6.54-21.91a1.31 1.31 0 0 1 .48-.7c.27-.21.58-.32.95-.32h3.32zm9.35 8.88c1.63 0 3.1.27 4.4.82a9.43 9.43 0 0 1 5.46 5.94c.5 1.4.74 2.98.74 4.73 0 1.76-.25 3.34-.74 4.75a9.43 9.43 0 0 1-5.46 5.92c-1.3.52-2.77.79-4.4.79-1.64 0-3.12-.27-4.44-.8a9.42 9.42 0 0 1-3.35-2.3c-.92-1-1.63-2.2-2.13-3.61-.49-1.41-.73-3-.73-4.75s.24-3.33.73-4.73c.5-1.43 1.2-2.64 2.13-3.63.93-1 2.04-1.77 3.35-2.31 1.32-.55 2.8-.82 4.44-.82zm0 19.89c2.2 0 3.84-.73 4.93-2.2 1.08-1.48 1.63-3.54 1.63-6.18 0-2.66-.55-4.72-1.63-6.2-1.09-1.49-2.73-2.23-4.93-2.23-1.12 0-2.09.2-2.93.57a5.71 5.71 0 0 0-2.06 1.65c-.55.72-.96 1.61-1.24 2.67-.26 1.04-.4 2.22-.4 3.54 0 2.64.55 4.7 1.64 6.18 1.1 1.47 2.76 2.2 4.99 2.2zm17.97-15.07a9.94 9.94 0 0 1 2.6-3.56 5.64 5.64 0 0 1 3.76-1.3c.47 0 .91.05 1.34.15.44.1.83.27 1.16.49l-.28 2.92c-.09.37-.31.55-.66.55-.2 0-.5-.04-.9-.13a6.2 6.2 0 0 0-3.24.18 4.23 4.23 0 0 0-1.47.92c-.43.4-.82.9-1.17 1.5a13.1 13.1 0 0 0-.92 2.02V48h-3.94V25.71h2.24c.43 0 .72.08.88.25.17.16.28.44.33.83l.27 3.39zm15.04-14.59V48h-3.92V15.6h3.92zm19.55 15.43a6.22 6.22 0 0 0-2.38-2.05 6.7 6.7 0 0 0-2.86-.6c-2.07 0-3.66.75-4.77 2.23-1.12 1.48-1.68 3.6-1.68 6.33 0 1.46.13 2.7.38 3.74a7.29 7.29 0 0 0 1.1 2.56 4.35 4.35 0 0 0 1.78 1.45c.7.3 1.5.46 2.4.46 1.29 0 2.41-.3 3.36-.88a9.6 9.6 0 0 0 2.67-2.49V31.02zm3.91-15.43V48h-2.33c-.56 0-.9-.27-1.06-.81l-.35-2.71a12.13 12.13 0 0 1-3.25 2.77 8.28 8.28 0 0 1-4.23 1.06 7.31 7.31 0 0 1-6.14-2.9c-.73-.96-1.3-2.15-1.69-3.57a18.35 18.35 0 0 1 .07-9.48 11.29 11.29 0 0 1 1.89-3.7 8.7 8.7 0 0 1 7.06-3.34 7.96 7.96 0 0 1 6.12 2.62V15.59h3.91zM46.61 70.71V93H42.7V70.71h3.91zm.84-7c0 .39-.08.75-.24 1.09-.15.32-.35.61-.62.88-.25.25-.55.44-.9.59a2.67 2.67 0 0 1-2.16 0 2.9 2.9 0 0 1-1.45-1.47 2.67 2.67 0 0 1 0-2.16c.15-.35.35-.65.6-.9.25-.27.53-.47.85-.62a2.67 2.67 0 0 1 2.16 0c.35.15.65.35.9.62.27.25.47.55.62.9.16.34.24.7.24 1.08zm7.97 10.24c.49-.54 1-1.04 1.54-1.48a9.85 9.85 0 0 1 3.66-1.84 8.96 8.96 0 0 1 5.43.35c.94.4 1.72.97 2.33 1.71.63.74 1.11 1.62 1.43 2.67.32 1.04.49 2.19.49 3.45V93h-3.94V78.81c0-1.69-.4-3-1.17-3.92-.76-.93-1.93-1.4-3.5-1.4-1.15 0-2.24.27-3.25.83-1 .56-1.92 1.31-2.77 2.27V93h-3.94V70.71h2.35c.56 0 .9.28 1.04.82l.3 2.42zm57.7 3.3c0 2.36-.37 4.5-1.11 6.44a14.3 14.3 0 0 1-3.17 4.98c-1.37 1.37-3 2.45-4.93 3.2-1.9.76-4.02 1.13-6.33 1.13H85.8V61.47h11.77c2.31 0 4.42.39 6.33 1.15a13.8 13.8 0 0 1 8.1 8.18 17.75 17.75 0 0 1 1.12 6.45zm-4.37 0c0-1.94-.26-3.67-.8-5.2a10.94 10.94 0 0 0-2.23-3.87 9.57 9.57 0 0 0-3.53-2.42 12.23 12.23 0 0 0-4.61-.83h-7.5v24.62h7.5c1.7 0 3.24-.28 4.61-.84a9.7 9.7 0 0 0 3.53-2.4 10.94 10.94 0 0 0 2.24-3.87c.53-1.53.8-3.26.8-5.2zm19.8 5.72c-1.8.06-3.34.2-4.62.44-1.26.22-2.3.51-3.1.88-.8.36-1.37.8-1.74 1.3-.35.5-.53 1.05-.53 1.67 0 .58.1 1.1.3 1.52a3 3 0 0 0 .76 1.05c.34.27.73.46 1.17.6a6.13 6.13 0 0 0 1.45.17 7.28 7.28 0 0 0 3.5-.81 11.95 11.95 0 0 0 2.82-2.2v-4.62zm-12.65-9.11a12.73 12.73 0 0 1 3.98-2.66c1.43-.59 3-.88 4.73-.88 1.25 0 2.36.2 3.33.61a6.81 6.81 0 0 1 3.94 4.38c.33 1.04.5 2.19.5 3.43V93h-1.74a1.8 1.8 0 0 1-.88-.18c-.2-.13-.36-.38-.48-.74l-.44-2.12-1.72 1.46a9.48 9.48 0 0 1-3.74 1.7c-.69.15-1.46.23-2.3.23-.87 0-1.69-.12-2.45-.35a5.34 5.34 0 0 1-3.34-2.93 6.64 6.64 0 0 1-.49-2.64c0-.88.25-1.72.73-2.53a6.33 6.33 0 0 1 2.35-2.17c1.09-.63 2.5-1.15 4.25-1.54 1.75-.41 3.89-.65 6.42-.7v-1.75c0-1.73-.37-3.03-1.12-3.91-.75-.9-1.84-1.34-3.28-1.34-.97 0-1.78.12-2.44.37-.64.23-1.2.5-1.7.81l-1.23.82c-.33.23-.67.35-1 .35-.27 0-.5-.07-.69-.2a2.1 2.1 0 0 1-.48-.53l-.7-1.25zm27.67 19.5c-1.76 0-3.12-.5-4.07-1.48-.94-.98-1.41-2.4-1.41-4.25V74h-2.68a.9.9 0 0 1-.6-.2c-.16-.14-.24-.36-.24-.66v-1.56l3.65-.46.9-6.89c.05-.22.14-.4.29-.52a.88.88 0 0 1 .62-.22H142v7.67h6.44V74H142v13.38c0 .94.22 1.63.68 2.09.45.45 1.04.68 1.76.68a3.21 3.21 0 0 0 1.85-.53l.55-.35c.16-.12.3-.18.41-.18.2 0 .4.13.55.38l1.15 1.87a7.45 7.45 0 0 1-2.44 1.5 8.53 8.53 0 0 1-2.95.52zm19.68-10.4c-1.8.07-3.34.21-4.62.45-1.26.22-2.3.51-3.1.88-.8.36-1.37.8-1.74 1.3-.35.5-.53 1.05-.53 1.67 0 .58.1 1.1.3 1.52a2.9 2.9 0 0 0 .76 1.05c.34.27.73.46 1.17.6a6.13 6.13 0 0 0 1.45.17 7.3 7.3 0 0 0 3.5-.81 12.04 12.04 0 0 0 2.82-2.2v-4.62zm-12.65-9.1a12.72 12.72 0 0 1 3.99-2.66c1.42-.59 3-.88 4.72-.88 1.25 0 2.36.2 3.33.61a6.81 6.81 0 0 1 3.94 4.38c.33 1.04.5 2.19.5 3.43V93h-1.74a1.8 1.8 0 0 1-.88-.18c-.2-.13-.36-.38-.48-.74l-.44-2.12-1.72 1.46a9.48 9.48 0 0 1-3.74 1.7c-.69.15-1.46.23-2.3.23-.87 0-1.69-.12-2.45-.35a5.33 5.33 0 0 1-3.34-2.93 6.62 6.62 0 0 1-.49-2.64c0-.88.25-1.72.73-2.53a6.33 6.33 0 0 1 2.35-2.17c1.09-.63 2.5-1.15 4.25-1.54 1.74-.41 3.89-.65 6.42-.7v-1.75c0-1.73-.37-3.03-1.12-3.91-.75-.9-1.84-1.34-3.28-1.34-.97 0-1.78.12-2.44.37-.64.23-1.2.5-1.7.81l-1.22.82c-.34.23-.68.35-1.02.35-.26 0-.49-.07-.68-.2a1.88 1.88 0 0 1-.48-.53l-.7-1.25zM40.98 32.25c0 2.36-.38 4.53-1.12 6.51a14.26 14.26 0 0 1-8.1 8.4c-1.9.78-4.02 1.17-6.34 1.17-2.31 0-4.42-.39-6.33-1.17a14.31 14.31 0 0 1-8.08-8.4 18.29 18.29 0 0 1-1.12-6.51c0-2.36.38-4.53 1.12-6.5.75-1.97 1.8-3.67 3.17-5.1a14.32 14.32 0 0 1 4.9-3.34c1.92-.8 4.03-1.19 6.34-1.19 2.32 0 4.43.4 6.34 1.19 1.92.8 3.56 1.9 4.93 3.34a14.87 14.87 0 0 1 3.17 5.1 18.1 18.1 0 0 1 1.12 6.5zm-4.38 0c0-1.94-.26-3.68-.8-5.22a10.91 10.91 0 0 0-2.24-3.89 9.68 9.68 0 0 0-3.52-2.46 11.95 11.95 0 0 0-4.62-.86c-1.68 0-3.21.28-4.6.86a9.88 9.88 0 0 0-3.54 2.46 10.91 10.91 0 0 0-2.24 3.9c-.53 1.53-.8 3.27-.8 5.2 0 1.94.27 3.68.8 5.22a11.17 11.17 0 0 0 2.24 3.9 10.01 10.01 0 0 0 3.55 2.44c1.38.56 2.9.83 4.6.83s3.24-.27 4.61-.83a9.8 9.8 0 0 0 3.52-2.44 11.17 11.17 0 0 0 2.25-3.9c.53-1.54.8-3.28.8-5.21zm26.22-6.54V48H60.5c-.56 0-.9-.27-1.05-.81l-.31-2.4a12.45 12.45 0 0 1-3.26 2.6c-1.2.64-2.58.96-4.13.96-1.22 0-2.3-.2-3.24-.6a6.52 6.52 0 0 1-2.33-1.7 7.37 7.37 0 0 1-1.43-2.67c-.3-1.04-.46-2.2-.46-3.45V25.7h3.91v14.22c0 1.68.38 2.99 1.15 3.91.77.93 1.96 1.39 3.54 1.39 1.16 0 2.24-.27 3.23-.82a10.42 10.42 0 0 0 2.8-2.28V25.7h3.91zm8.61 4.47a9.94 9.94 0 0 1 2.6-3.56 5.64 5.64 0 0 1 3.76-1.3c.47 0 .92.05 1.34.15.44.1.83.27 1.17.49l-.3 2.92c-.09.37-.3.55-.66.55-.2 0-.5-.04-.9-.13a6.21 6.21 0 0 0-3.24.18 4.23 4.23 0 0 0-1.47.92c-.42.4-.81.9-1.17 1.5-.33.58-.64 1.26-.92 2.02V48H67.7V25.71h2.25c.42 0 .72.08.88.25.16.16.27.44.33.83l.26 3.39zm61.16-13.7L122.75 48h-3.82l-7.99-24.05a21.95 21.95 0 0 1-.42-1.58 38.36 38.36 0 0 1-.44 1.58L102.05 48h-3.83L88.4 16.47h3.54c.38 0 .7.1.95.29.26.2.43.43.5.73l6.52 21.9.28 1.28.29 1.46.3-1.46.38-1.27 7.41-21.91c.1-.25.26-.48.51-.69.27-.22.58-.33.95-.33h1.23c.38 0 .69.1.92.29a1.77 1.77 0 0 1 .53.73l7.4 21.9a28.4 28.4 0 0 1 .68 2.62 29.52 29.52 0 0 1 .52-2.61l6.54-21.91a1.31 1.31 0 0 1 .48-.7c.27-.21.58-.32.95-.32h3.32zm9.35 8.88c1.63 0 3.1.27 4.4.82a9.43 9.43 0 0 1 5.46 5.94c.5 1.4.74 2.98.74 4.73 0 1.76-.25 3.34-.74 4.75a9.43 9.43 0 0 1-5.46 5.92c-1.3.52-2.77.79-4.4.79-1.64 0-3.12-.27-4.44-.8a9.42 9.42 0 0 1-3.35-2.3c-.92-1-1.63-2.2-2.13-3.61-.49-1.41-.73-3-.73-4.75s.24-3.33.73-4.73c.5-1.43 1.2-2.64 2.13-3.63.93-1 2.04-1.77 3.35-2.31 1.32-.55 2.8-.82 4.44-.82zm0 19.89c2.2 0 3.84-.73 4.93-2.2 1.08-1.48 1.63-3.54 1.63-6.18 0-2.66-.55-4.72-1.63-6.2-1.09-1.49-2.73-2.23-4.93-2.23-1.12 0-2.09.2-2.93.57a5.71 5.71 0 0 0-2.06 1.65c-.55.72-.96 1.61-1.24 2.67-.26 1.04-.4 2.22-.4 3.54 0 2.64.55 4.7 1.64 6.18 1.1 1.47 2.76 2.2 4.99 2.2zm17.97-15.07a9.94 9.94 0 0 1 2.6-3.56 5.64 5.64 0 0 1 3.76-1.3c.47 0 .91.05 1.34.15.44.1.83.27 1.16.49l-.28 2.92c-.09.37-.31.55-.66.55-.2 0-.5-.04-.9-.13a6.2 6.2 0 0 0-3.24.18 4.23 4.23 0 0 0-1.47.92c-.43.4-.82.9-1.17 1.5a13.1 13.1 0 0 0-.92 2.02V48h-3.94V25.71h2.24c.43 0 .72.08.88.25.17.16.28.44.33.83l.27 3.39zm15.04-14.59V48h-3.92V15.6h3.92zm19.55 15.43a6.22 6.22 0 0 0-2.38-2.05 6.7 6.7 0 0 0-2.86-.6c-2.07 0-3.66.75-4.77 2.23-1.12 1.48-1.68 3.6-1.68 6.33 0 1.46.13 2.7.38 3.74a7.29 7.29 0 0 0 1.1 2.56 4.35 4.35 0 0 0 1.78 1.45c.7.3 1.5.46 2.4.46 1.29 0 2.41-.3 3.36-.88a9.6 9.6 0 0 0 2.67-2.49V31.02zm3.91-15.43V48h-2.33c-.56 0-.9-.27-1.06-.81l-.35-2.71a12.13 12.13 0 0 1-3.25 2.77 8.28 8.28 0 0 1-4.23 1.06 7.31 7.31 0 0 1-6.14-2.9c-.73-.96-1.3-2.15-1.69-3.57a18.35 18.35 0 0 1 .07-9.48 11.29 11.29 0 0 1 1.89-3.7 8.7 8.7 0 0 1 7.06-3.34 7.96 7.96 0 0 1 6.12 2.62V15.59h3.91zM46.61 70.71V93H42.7V70.71h3.91zm.84-7c0 .39-.08.75-.24 1.09-.15.32-.35.61-.62.88-.25.25-.55.44-.9.59a2.67 2.67 0 0 1-2.16 0 2.9 2.9 0 0 1-1.45-1.47 2.67 2.67 0 0 1 0-2.16c.15-.35.35-.65.6-.9.25-.27.53-.47.85-.62a2.67 2.67 0 0 1 2.16 0c.35.15.65.35.9.62.27.25.47.55.62.9.16.34.24.7.24 1.08zm7.97 10.24c.49-.54 1-1.04 1.54-1.48a9.85 9.85 0 0 1 3.66-1.84 8.96 8.96 0 0 1 5.43.35c.94.4 1.72.97 2.33 1.71.63.74 1.11 1.62 1.43 2.67.32 1.04.49 2.19.49 3.45V93h-3.94V78.81c0-1.69-.4-3-1.17-3.92-.76-.93-1.93-1.4-3.5-1.4-1.15 0-2.24.27-3.25.83-1 .56-1.92 1.31-2.77 2.27V93h-3.94V70.71h2.35c.56 0 .9.28 1.04.82l.3 2.42zm57.7 3.3c0 2.36-.37 4.5-1.11 6.44a14.3 14.3 0 0 1-3.17 4.98c-1.37 1.37-3 2.45-4.93 3.2-1.9.76-4.02 1.13-6.33 1.13H85.8V61.47h11.77c2.31 0 4.42.39 6.33 1.15a13.8 13.8 0 0 1 8.1 8.18 17.75 17.75 0 0 1 1.12 6.45zm-4.37 0c0-1.94-.26-3.67-.8-5.2a10.94 10.94 0 0 0-2.23-3.87 9.57 9.57 0 0 0-3.53-2.42 12.23 12.23 0 0 0-4.61-.83h-7.5v24.62h7.5c1.7 0 3.24-.28 4.61-.84a9.7 9.7 0 0 0 3.53-2.4 10.94 10.94 0 0 0 2.24-3.87c.53-1.53.8-3.26.8-5.2zm19.8 5.72c-1.8.06-3.34.2-4.62.44-1.26.22-2.3.51-3.1.88-.8.36-1.37.8-1.74 1.3-.35.5-.53 1.05-.53 1.67 0 .58.1 1.1.3 1.52a3 3 0 0 0 .76 1.05c.34.27.73.46 1.17.6a6.13 6.13 0 0 0 1.45.17 7.28 7.28 0 0 0 3.5-.81 11.95 11.95 0 0 0 2.82-2.2v-4.62zm-12.65-9.11a12.73 12.73 0 0 1 3.98-2.66c1.43-.59 3-.88 4.73-.88 1.25 0 2.36.2 3.33.61a6.81 6.81 0 0 1 3.94 4.38c.33 1.04.5 2.19.5 3.43V93h-1.74a1.8 1.8 0 0 1-.88-.18c-.2-.13-.36-.38-.48-.74l-.44-2.12-1.72 1.46a9.48 9.48 0 0 1-3.74 1.7c-.69.15-1.46.23-2.3.23-.87 0-1.69-.12-2.45-.35a5.34 5.34 0 0 1-3.34-2.93 6.64 6.64 0 0 1-.49-2.64c0-.88.25-1.72.73-2.53a6.33 6.33 0 0 1 2.35-2.17c1.09-.63 2.5-1.15 4.25-1.54 1.75-.41 3.89-.65 6.42-.7v-1.75c0-1.73-.37-3.03-1.12-3.91-.75-.9-1.84-1.34-3.28-1.34-.97 0-1.78.12-2.44.37-.64.23-1.2.5-1.7.81l-1.23.82c-.33.23-.67.35-1 .35-.27 0-.5-.07-.69-.2a2.1 2.1 0 0 1-.48-.53l-.7-1.25zm27.67 19.5c-1.76 0-3.12-.5-4.07-1.48-.94-.98-1.41-2.4-1.41-4.25V74h-2.68a.9.9 0 0 1-.6-.2c-.16-.14-.24-.36-.24-.66v-1.56l3.65-.46.9-6.89c.05-.22.14-.4.29-.52a.88.88 0 0 1 .62-.22H142v7.67h6.44V74H142v13.38c0 .94.22 1.63.68 2.09.45.45 1.04.68 1.76.68a3.21 3.21 0 0 0 1.85-.53l.55-.35c.16-.12.3-.18.41-.18.2 0 .4.13.55.38l1.15 1.87a7.45 7.45 0 0 1-2.44 1.5 8.53 8.53 0 0 1-2.95.52zm19.68-10.4c-1.8.07-3.34.21-4.62.45-1.26.22-2.3.51-3.1.88-.8.36-1.37.8-1.74 1.3-.35.5-.53 1.05-.53 1.67 0 .58.1 1.1.3 1.52a2.9 2.9 0 0 0 .76 1.05c.34.27.73.46 1.17.6a6.13 6.13 0 0 0 1.45.17 7.3 7.3 0 0 0 3.5-.81 12.04 12.04 0 0 0 2.82-2.2v-4.62zm-12.65-9.1a12.72 12.72 0 0 1 3.99-2.66c1.42-.59 3-.88 4.72-.88 1.25 0 2.36.2 3.33.61a6.81 6.81 0 0 1 3.94 4.38c.33 1.04.5 2.19.5 3.43V93h-1.74a1.8 1.8 0 0 1-.88-.18c-.2-.13-.36-.38-.48-.74l-.44-2.12-1.72 1.46a9.48 9.48 0 0 1-3.74 1.7c-.69.15-1.46.23-2.3.23-.87 0-1.69-.12-2.45-.35a5.33 5.33 0 0 1-3.34-2.93 6.62 6.62 0 0 1-.49-2.64c0-.88.25-1.72.73-2.53a6.33 6.33 0 0 1 2.35-2.17c1.09-.63 2.5-1.15 4.25-1.54 1.74-.41 3.89-.65 6.42-.7v-1.75c0-1.73-.37-3.03-1.12-3.91-.75-.9-1.84-1.34-3.28-1.34-.97 0-1.78.12-2.44.37-.64.23-1.2.5-1.7.81l-1.22.82c-.34.23-.68.35-1.02.35-.26 0-.49-.07-.68-.2a1.88 1.88 0 0 1-.48-.53l-.7-1.25z"
    fill="#fff"
  />
  <path fill="#D42B21" d="M0 106.79h210V120H0z" />
</g>
<defs>
  <clipPath id="clip0"><path fill="#fff" d="M0 0h210v120H0z" /></clipPath>
</defs>
</svg></g><a href="https://ourworldindata.org/explorers/coronavirus-data-explorer?zoomToSelection=true&amp;pickerSort=desc&amp;pickerMetric=total_vaccinations&amp;Metric=People+vaccinated&amp;Interval=Cumulative&amp;Relative+to+Population=true&amp;Align+outbreaks=false&amp;country=OWID_WRL~Asia~Europe~North+America~European+Union~South+America~Oceania~Africa~AUS" style="font-family:&quot;Playfair Display&quot;, Georgia, &quot;Times New Roman&quot;, serif" target="_blank" rel="noopener"><text font-size="23.40" x="15.0" y="33.7" fill="#555"><tspan x="15" y="33.72">Share of people who received at least one dose of COVID-19 vaccine</tspan></text></a><text font-size="14.40" x="15.0" y="53.9" fill="#666"><tspan x="15" y="53.919999999999995">Share of the total population that received at least one vaccine dose. This may not equal the share that are fully</tspan><tspan x="15" y="71.19999999999999">vaccinated if the vaccine requires two doses.</tspan></text></g><g class="LineChart"><defs><clipPath id="boundsClip-5"><rect x="42.562" y="72.4" width="830" height="914"></rect></clipPath></defs><g class="DualAxisView"><g class="HorizontalAxis"><line x1="52.6" y1="526.2" x2="52.6" y2="530.2" stroke="#ccc"></line><line x1="158.6" y1="526.2" x2="158.6" y2="530.2" stroke="#ccc"></line><line x1="314.5" y1="526.2" x2="314.5" y2="530.2" stroke="#ccc"></line><line x1="470.5" y1="526.2" x2="470.5" y2="530.2" stroke="#ccc"></line><line x1="667" y1="526.2" x2="667" y2="530.2" stroke="#ccc"></line><text x="52.6" y="547.4" fill="#666" text-anchor="middle" font-size="16.2">Dec 2, 2020</text><text x="158.6" y="547.4" fill="#666" text-anchor="middle" font-size="16.2">Jan 5, 2021</text><text x="314.5" y="547.4" fill="#666" text-anchor="middle" font-size="16.2">Feb 24, 2021</text><text x="470.5" y="547.4" fill="#666" text-anchor="middle" font-size="16.2">Apr 15, 2021</text><text x="667" y="547.4" fill="#666" text-anchor="middle" font-size="16.2">Jun 17, 2021</text></g><g class="VerticalAxis"><text x="47.56" y="526.2" fill="#666" dominant-baseline="middle" text-anchor="end" font-size="16.2">0%</text><text x="47.56" y="431.7" fill="#666" dominant-baseline="middle" text-anchor="end" font-size="16.2">10%</text><text x="47.56" y="337.2" fill="#666" dominant-baseline="middle" text-anchor="end" font-size="16.2">20%</text><text x="47.56" y="242.7" fill="#666" dominant-baseline="middle" text-anchor="end" font-size="16.2">30%</text><text x="47.56" y="148.1" fill="#666" dominant-baseline="middle" text-anchor="end" font-size="16.2">40%</text></g><g class="AxisGridLines horizontalLines"><line x1="52.56" y1="526.2" x2="666.96" y2="526.2" stroke="#ccc"></line><line x1="52.56" y1="431.7" x2="666.96" y2="431.7" stroke="#d3d3d3" stroke-dasharray="3,2"></line><line x1="52.56" y1="337.2" x2="666.96" y2="337.2" stroke="#d3d3d3" stroke-dasharray="3,2"></line><line x1="52.56" y1="242.7" x2="666.96" y2="242.7" stroke="#d3d3d3" stroke-dasharray="3,2"></line><line x1="52.56" y1="148.1" x2="666.96" y2="148.1" stroke="#d3d3d3" stroke-dasharray="3,2"></line></g></g><g clip-path="url(#boundsClip-5)"><g class="LineLabels" style="cursor:default"><g class="legendMark"><g class="indicator"><path d="M670.9575,90.4 H684.4575 V97.15 H697.9575" stroke="#999" stroke-width="0.5" fill="none"></path></g><rect x="666.9575" y="90.4" width="133.01" height="13.5" fill="#fff" opacity="0"></rect><text font-size="13.50" x="702.0" y="101.2" fill="#C45267"><tspan x="701.9575" y="101.2">European Union</tspan></text></g><g class="legendMark"><g class="indicator"><path d="M670.9575,143.1 H684.4575 V143.1 H697.9575" stroke="#999" stroke-width="0.5" fill="none"></path></g><rect x="666.9575" y="136.35" width="121.4" height="13.5" fill="#fff" opacity="0"></rect><text font-size="13.50" x="702.0" y="147.2" fill="#9A5129"><tspan x="701.9575" y="147.15">North America</tspan></text></g><g class="legendMark"><g class="indicator"><path d="M670.9575,173.2 H684.4575 V173.2 H697.9575" stroke="#999" stroke-width="0.5" fill="none"></path></g><rect x="666.9575" y="166.45" width="78.74000000000001" height="13.5" fill="#fff" opacity="0"></rect><text font-size="13.50" x="702.0" y="177.3" fill="#0F739C"><tspan x="701.9575" y="177.25">Europe</tspan></text></g><g class="legendMark"><g class="indicator"><path d="M670.9575,294.5 H679.9575 V267.95000000000005 H697.9575" stroke="#999" stroke-width="0.5" fill="none"></path></g><rect x="666.9575" y="261.20000000000005" width="123.83000000000001" height="13.5" fill="#fff" opacity="0"></rect><text font-size="13.50" x="702.0" y="272.0" fill="#008860"><tspan x="701.9575" y="272.00000000000006">South America</tspan></text></g><g class="legendMark"><g class="indicator"><path d="M670.9575,322.2 H688.9575 V296.15000000000003 H697.9575" stroke="#999" stroke-width="0.5" fill="none"></path></g><rect x="666.9575" y="276.70000000000005" width="168.0425" height="38.900000000000006" fill="#fff" opacity="0"></rect><text font-size="13.50" x="702.0" y="287.5" fill="#CD2285"><tspan x="701.9575" y="287.50000000000006">Asia</tspan></text><text font-size="12.15" x="702.0" y="299.9" fill="#333" class="textAnnotation" style="font-weight:lighter"><tspan x="701.9575" y="299.92">Data for China added on</tspan><tspan x="701.9575" y="313.285">Jun 10</tspan></text></g><g class="legendMark"><g class="indicator"><path d="M670.9575,324.3 H688.9575 V337.05 H697.9575" stroke="#999" stroke-width="0.5" fill="none"></path></g><rect x="666.9575" y="317.6" width="168.0425" height="38.900000000000006" fill="#fff" opacity="0"></rect><text font-size="13.50" x="702.0" y="328.4" fill="#3C4E66"><tspan x="701.9575" y="328.40000000000003">World</tspan></text><text font-size="12.15" x="702.0" y="340.8" fill="#333" class="textAnnotation" style="font-weight:lighter"><tspan x="701.9575" y="340.82">Data for China added on</tspan><tspan x="701.9575" y="354.185">Jun 10</tspan></text></g><g class="legendMark"><g class="indicator"><path d="M670.9575,325.4 H679.9575 V365.25 H697.9575" stroke="#999" stroke-width="0.5" fill="none"></path></g><rect x="666.9575" y="358.5" width="87.65" height="13.5" fill="#fff" opacity="0"></rect><text font-size="13.50" x="702.0" y="369.3" fill="#A2559C"><tspan x="701.9575" y="369.3">Australia</tspan></text></g><g class="legendMark"><g class="indicator"><path d="M670.9575,382.3 H684.4575 V382.3 H697.9575" stroke="#999" stroke-width="0.5" fill="none"></path></g><rect x="666.9575" y="375.55" width="85.49000000000001" height="13.5" fill="#fff" opacity="0"></rect><text font-size="13.50" x="702.0" y="386.4" fill="#8C4569"><tspan x="701.9575" y="386.35">Oceania</tspan></text></g><g class="legendMark"><g class="indicator"><path d="M670.9575,503.8 H684.4575 V503.8 H697.9575" stroke="#999" stroke-width="0.5" fill="none"></path></g><rect x="666.9575" y="497.05" width="69.56" height="13.5" fill="#fff" opacity="0"></rect><text font-size="13.50" x="702.0" y="507.9" fill="#B36216"><tspan x="701.9575" y="507.85">Africa</tspan></text></g></g><g class="Lines"><rect x="53" y="90" width="614" height="436" fill="rgba(255,255,255,0)" opacity="0"></rect><g><path stroke-linecap="round" stroke="#ddd" d="M287 526L290 526L293 526L296 526L299 526L302 526L305 526L308 526L311 526L315 526L318 526L321 525L324 525L327 525L330 525L333 525L336 524L340 524L343 524L346 523L349 523L352 523L355 523L358 522L361 522L364 521L368 520L371 520L592 408L595 405L598 403L602 399L605 395L608 391L611 389L614 388L617 383L620 379L623 375L626 370L630 365L633 361L636 359L639 357L642 352L645 347L648 342L651 338L655 336L658 335L661 332L664 330L667 325" fill="none" stroke-width="1"></path></g><g><path stroke-linecap="round" stroke="#ddd" d="M246 526L271 526L287 526L290 526L293 526L296 526L299 526L302 526L305 526L308 526L311 526L315 526L318 526L321 525L324 525L327 525L330 525L333 525L336 525L340 524L343 524L346 524L349 524L352 524L355 523L358 523L361 523L364 522L368 522L371 522L374 522L377 522L380 521L383 521L386 521L389 521L393 521L396 521L399 521L402 521L405 521L408 521L411 521L414 521L418 521L421 520L424 520L427 520L430 520L433 520L436 520L439 520L442 520L446 520L449 520L452 519L455 519L458 519L461 519L464 519L467 519L471 518L474 517L477 517L480 517L483 517L486 517L489 516L492 516L495 516L499 516L502 516L505 516L508 515L511 515L514 515L517 515L520 515L524 515L527 515L530 514L533 514L536 513L539 513L542 513L545 513L548 513L552 511L555 511L558 511L561 511L564 511L567 510L570 510L573 510L577 509L580 509L583 509L586 509L589 509L592 441L595 439L598 437L602 435L605 432L608 429L611 428L614 427L617 423L620 421L623 417L626 414L630 411L633 409L636 407L639 403L642 400L645 397L648 394L651 391L655 390L658 389L661 386L664 385L667 382" fill="none" stroke-width="1"></path></g><g><path stroke-linecap="round" stroke="#ddd" d="M171 526L184 526L190 526L193 526L202 526L205 526L212 526L215 526L218 526L221 526L224 526L227 526L230 526L234 526L237 526L240 526L243 526L246 526L249 526L252 526L255 526L258 526L265 526L268 526L271 526L274 526L277 526L280 526L287 526L290 526L293 526L296 526L299 524L302 524L305 524L308 524L311 524L315 524L318 524L321 524L324 524L327 524L330 524L333 524L336 523L340 523L343 523L346 523L349 523L352 523L355 523L358 523L361 523L364 523L368 523L371 522L374 522L377 522L380 522L383 522L386 522L389 522L393 522L396 522L399 522L402 522L405 522L408 522L411 521L414 521L418 521L421 521L424 521L427 521L430 521L433 521L436 520L439 520L442 520L446 520L449 520L452 519L455 519L458 519L461 519L464 519L467 519L471 519L474 519L477 518L480 518L483 518L486 518L489 518L492 518L495 517L499 517L502 517L505 517L508 517L511 517L514 517L517 516L520 516L524 516L527 516L530 516L533 516L536 516L539 515L542 515L545 515L548 515L552 514L555 514L558 514L561 513L564 513L567 513L570 513L573 513L577 512L580 512L583 512L586 511L589 511L592 511L595 510L598 510L602 510L605 510L608 509L611 509L614 509L617 508L620 508L623 508L626 508L630 508L633 506L636 506L639 505L642 505L645 505L648 505L651 504L655 504L658 504L661 504L664 504L667 504" fill="none" stroke-width="1"></path></g><g><path stroke-linecap="round" stroke="#ddd" d="M121 526L124 526L127 526L131 526L134 526L137 526L140 526L143 526L146 526L149 526L152 526L156 526L159 526L162 526L165 526L168 526L171 526L174 526L177 526L180 526L184 526L187 526L190 526L193 526L196 526L199 526L202 526L205 525L209 525L212 525L215 524L218 524L221 524L224 524L227 523L230 522L234 522L237 521L240 521L243 521L246 520L249 520L252 518L255 518L258 517L262 516L265 516L268 515L271 514L274 512L277 511L280 510L283 510L287 509L290 508L293 508L296 507L299 506L302 506L305 506L308 505L311 505L315 504L318 504L321 503L324 503L327 502L330 502L333 501L336 500L340 498L343 497L346 497L349 496L352 496L355 495L358 494L361 493L364 492L368 489L371 489L374 487L377 487L380 485L383 483L386 482L389 481L393 481L396 479L399 477L402 474L405 473L408 471L411 469L414 469L418 467L421 466L424 463L427 463L430 459L433 459L436 458L439 456L442 454L446 451L449 449L452 447L455 445L458 445L461 443L464 436L467 434L471 433L474 433L477 432L480 431L483 430L486 429L489 428L492 427L495 424L499 422L502 422L505 420L508 418L511 416L514 414L517 413L520 412L524 411L527 410L530 407L533 405L536 404L539 402L542 402L545 401L548 400L552 398L555 395L558 393L561 389L564 388L567 387L570 385L573 383L577 381L580 378L583 377L586 376L589 376L592 374L595 363L598 360L602 358L605 355L608 352L611 351L614 349L617 346L620 343L623 339L626 336L630 334L633 332L636 331L639 329L642 322L645 319L648 314L651 313L655 309L658 307L661 303L664 300L667 295" fill="none" stroke-width="1"></path></g><g><path stroke-linecap="round" stroke="#ddd" d="M99 526L106 526L112 526L115 526L118 526L121 526L127 526L131 526L134 526L137 526L140 526L143 525L146 525L149 525L152 525L156 524L159 524L162 523L165 522L168 522L171 521L174 521L177 520L180 519L184 518L187 517L190 515L193 515L196 515L199 513L202 512L205 511L209 510L212 509L215 509L218 508L221 508L224 507L227 506L230 505L234 504L237 504L240 503L243 503L246 502L249 502L252 501L255 500L258 500L262 499L265 499L268 498L271 498L274 497L277 496L280 495L283 494L287 494L290 493L293 492L296 491L299 489L302 489L305 488L308 487L311 485L315 484L318 482L321 480L324 479L327 477L330 476L333 474L336 472L340 470L343 468L346 466L349 464L352 462L355 460L358 458L361 455L364 453L368 451L371 449L374 447L377 446L380 444L383 442L386 441L389 439L393 438L396 436L399 434L402 431L405 428L408 425L411 423L414 421L418 419L421 416L424 412L427 409L430 407L433 405L436 403L439 401L442 398L446 394L449 389L452 384L455 381L458 378L461 374L464 370L467 365L471 360L474 356L477 353L480 349L483 345L486 341L489 336L492 332L495 327L499 325L502 320L505 317L508 312L511 307L514 301L517 297L520 293L524 289L527 286L530 281L533 275L536 269L539 264L542 261L545 256L548 252L552 247L555 241L558 236L561 231L564 228L567 223L570 219L573 215L577 210L580 204L583 200L586 197L589 192L592 189L595 185L598 181L602 176L605 172L608 170L611 166L614 163L617 158L620 153L623 149L626 145L630 141L633 137L636 133L639 128L642 122L645 117L648 113L651 110L655 105L658 102L661 98L664 94L667 90" fill="none" stroke-width="1"></path></g><g><path stroke-linecap="round" stroke="#ddd" d="M93 526L106 526L109 526L112 526L115 526L118 526L121 526L124 526L127 526L131 526L134 526L137 526L140 526L143 526L146 526L149 526L152 526L156 526L159 526L162 526L165 526L168 526L171 526L174 526L177 526L180 526L184 526L187 526L190 526L193 526L196 526L199 525L202 525L205 525L209 525L212 525L215 525L218 525L221 525L224 525L227 525L230 525L234 525L237 525L240 524L243 524L246 524L249 524L252 524L255 524L258 524L262 524L265 524L268 524L271 523L274 523L277 522L280 522L283 522L287 522L290 522L293 522L296 521L299 521L302 521L305 521L308 521L311 520L315 520L318 520L321 519L324 519L327 519L330 519L333 519L336 518L340 518L343 518L346 517L349 517L352 517L355 517L358 516L361 516L364 515L368 515L371 515L374 514L377 514L380 513L383 513L386 512L389 511L393 511L396 510L399 510L402 509L405 509L408 508L411 508L414 508L418 507L421 507L424 506L427 505L430 504L433 504L436 503L439 502L442 501L446 500L449 499L452 498L455 498L458 497L461 496L464 495L467 495L471 494L474 493L477 493L480 493L483 492L486 491L489 491L492 490L495 490L499 490L502 489L505 488L508 488L511 487L514 486L517 486L520 486L524 486L527 485L530 485L533 484L536 484L539 483L542 483L545 483L548 482L552 481L555 481L558 481L561 480L564 480L567 480L570 479L573 479L577 478L580 478L583 477L586 477L589 476L592 475L595 475L598 474L602 473L605 472L608 471L611 471L614 470L617 469L620 468L623 467L626 466L630 465L633 464L636 463L639 462L642 460L645 332L648 331L651 330L655 328L658 327L661 326L664 324L667 322" fill="none" stroke-width="1"></path></g><g><path stroke-linecap="round" stroke="#ddd" d="M90 526L93 526L96 526L99 526L103 526L106 526L109 525L112 525L115 525L118 525L121 525L124 525L127 523L131 523L134 523L137 523L140 522L143 522L146 522L149 519L152 519L156 519L159 518L162 517L165 516L168 515L171 515L174 515L177 511L180 511L184 510L187 510L190 508L193 508L196 508L199 508L202 503L205 502L209 500L212 498L215 496L218 494L221 493L224 492L227 491L230 489L234 487L237 485L240 484L243 482L246 482L249 480L252 479L255 478L258 475L262 473L265 472L268 471L271 470L274 468L277 466L280 464L283 462L287 462L290 460L293 459L296 457L299 456L302 454L305 453L308 452L311 451L315 450L318 448L321 446L324 443L327 441L330 439L333 437L336 435L340 433L343 430L346 427L349 425L352 422L355 420L358 417L361 414L364 410L368 405L371 403L374 401L377 399L380 395L383 392L386 389L389 384L393 381L396 378L399 376L402 373L405 369L408 365L411 361L414 357L418 354L421 352L424 348L427 345L430 340L433 335L436 332L439 329L442 327L446 324L449 319L452 314L455 309L458 305L461 302L464 298L467 294L471 290L474 286L477 283L480 280L483 277L486 275L489 272L492 269L495 266L499 263L502 260L505 258L508 256L511 254L514 251L517 249L520 246L524 245L527 243L530 242L533 239L536 237L539 234L542 232L545 230L548 228L552 226L555 224L558 221L561 219L564 217L567 214L570 211L573 210L577 207L580 203L583 199L586 196L589 194L592 191L595 190L598 187L602 185L605 181L608 178L611 176L614 175L617 172L620 170L623 168L626 165L630 163L633 161L636 159L639 157L642 155L645 154L648 152L651 150L655 149L658 147L661 146L664 145L667 143" fill="none" stroke-width="1"></path></g><g><path stroke-linecap="round" stroke="#ddd" d="M53 526L56 526L59 526L62 526L65 526L68 526L71 526L74 526L78 526L81 526L84 526L87 526L90 526L93 526L96 526L99 526L103 526L106 526L109 526L112 526L115 526L118 526L121 526L124 526L127 526L131 526L134 526L137 526L140 526L143 526L146 526L149 525L152 525L156 525L159 525L162 525L165 525L168 525L171 525L174 524L177 524L180 524L184 524L187 524L190 523L193 523L196 523L199 523L202 522L205 522L209 522L212 522L215 521L218 521L221 521L224 521L227 520L230 520L234 520L237 519L240 519L243 519L246 519L249 518L252 518L255 518L258 517L262 517L265 517L268 516L271 516L274 516L277 515L280 515L283 514L287 514L290 513L293 513L296 513L299 512L302 512L305 511L308 511L311 510L315 510L318 510L321 509L324 509L327 508L330 508L333 507L336 506L340 506L343 505L346 504L349 504L352 503L355 503L358 502L361 501L364 500L368 500L371 499L374 498L377 498L380 497L383 496L386 495L389 494L393 494L396 493L399 492L402 491L405 490L408 489L411 488L414 487L418 487L421 486L424 485L427 484L430 482L433 481L436 481L439 480L442 478L446 477L449 476L452 474L455 473L458 472L461 471L464 470L467 469L471 467L474 466L477 466L480 465L483 464L486 463L489 462L492 461L495 460L499 460L502 458L505 458L508 457L511 455L514 454L517 453L520 453L524 452L527 452L530 451L533 450L536 449L539 448L542 447L545 447L548 446L552 445L555 444L558 443L561 442L564 441L567 440L570 439L573 438L577 437L580 436L583 435L586 434L589 433L592 432L595 430L598 429L602 428L605 427L608 426L611 425L614 424L617 422L620 421L623 420L626 418L630 417L633 416L636 415L639 413L642 411L645 335L648 333L651 332L655 330L658 329L661 328L664 326L667 324" fill="none" stroke-width="1"></path></g><g><path stroke-linecap="round" stroke="#ddd" d="M53 526L56 526L59 526L62 526L65 526L68 526L71 526L74 526L78 526L81 526L84 526L87 526L90 526L93 526L96 526L99 526L103 526L106 526L109 526L112 526L115 526L118 526L121 526L124 526L127 526L131 526L134 526L137 526L140 526L143 526L146 526L149 525L152 523L156 522L159 522L162 522L165 521L168 521L171 520L174 519L177 518L180 517L184 516L187 515L190 514L193 513L196 513L199 512L202 511L205 510L209 508L212 507L215 506L218 506L221 505L224 504L227 503L230 502L234 501L237 500L240 499L243 498L246 497L249 496L252 495L255 494L258 493L262 493L265 492L268 491L271 490L274 489L277 487L280 486L283 485L287 484L290 483L293 482L296 480L299 479L302 478L305 477L308 477L311 475L315 474L318 472L321 470L324 469L327 468L330 467L333 462L336 460L340 457L343 455L346 453L349 452L352 450L355 449L358 447L361 445L364 443L368 441L371 439L374 438L377 436L380 435L383 433L386 431L389 429L393 427L396 426L399 424L402 422L405 420L408 417L411 415L414 414L418 410L421 408L424 406L427 403L430 401L433 400L436 399L439 397L442 395L446 392L449 389L452 385L455 383L458 381L461 378L464 375L467 372L471 368L474 365L477 363L480 360L483 357L486 354L489 351L492 348L495 344L499 342L502 339L505 337L508 333L511 329L514 325L517 322L520 320L524 317L527 315L530 312L533 308L536 304L539 300L542 298L545 295L548 292L552 288L555 283L558 280L561 276L564 274L567 270L570 268L573 264L577 261L580 257L583 253L586 251L589 248L592 245L595 242L598 239L602 236L605 233L608 231L611 228L614 226L617 223L620 219L623 216L626 212L630 210L633 207L636 204L639 201L642 196L645 193L648 190L651 188L655 184L658 182L661 179L664 176L667 173" fill="none" stroke-width="1"></path></g><g><path stroke="#A2559C" stroke-linecap="round" d="M287 526L290 526L293 526L296 526L299 526L302 526L305 526L308 526L311 526L315 526L318 526L321 525L324 525L327 525L330 525L333 525L336 524L340 524L343 524L346 523L349 523L352 523L355 523L358 522L361 522L364 521L368 520L371 520L592 408L595 405L598 403L602 399L605 395L608 391L611 389L614 388L617 383L620 379L623 375L626 370L630 365L633 361L636 359L639 357L642 352L645 347L648 342L651 338L655 336L658 335L661 332L664 330L667 325" fill="none" stroke-width="1.5"></path></g><g><path stroke="#8C4569" stroke-linecap="round" d="M246 526L271 526L287 526L290 526L293 526L296 526L299 526L302 526L305 526L308 526L311 526L315 526L318 526L321 525L324 525L327 525L330 525L333 525L336 525L340 524L343 524L346 524L349 524L352 524L355 523L358 523L361 523L364 522L368 522L371 522L374 522L377 522L380 521L383 521L386 521L389 521L393 521L396 521L399 521L402 521L405 521L408 521L411 521L414 521L418 521L421 520L424 520L427 520L430 520L433 520L436 520L439 520L442 520L446 520L449 520L452 519L455 519L458 519L461 519L464 519L467 519L471 518L474 517L477 517L480 517L483 517L486 517L489 516L492 516L495 516L499 516L502 516L505 516L508 515L511 515L514 515L517 515L520 515L524 515L527 515L530 514L533 514L536 513L539 513L542 513L545 513L548 513L552 511L555 511L558 511L561 511L564 511L567 510L570 510L573 510L577 509L580 509L583 509L586 509L589 509L592 441L595 439L598 437L602 435L605 432L608 429L611 428L614 427L617 423L620 421L623 417L626 414L630 411L633 409L636 407L639 403L642 400L645 397L648 394L651 391L655 390L658 389L661 386L664 385L667 382" fill="none" stroke-width="1.5"></path></g><g><path stroke="#B36216" stroke-linecap="round" d="M171 526L184 526L190 526L193 526L202 526L205 526L212 526L215 526L218 526L221 526L224 526L227 526L230 526L234 526L237 526L240 526L243 526L246 526L249 526L252 526L255 526L258 526L265 526L268 526L271 526L274 526L277 526L280 526L287 526L290 526L293 526L296 526L299 524L302 524L305 524L308 524L311 524L315 524L318 524L321 524L324 524L327 524L330 524L333 524L336 523L340 523L343 523L346 523L349 523L352 523L355 523L358 523L361 523L364 523L368 523L371 522L374 522L377 522L380 522L383 522L386 522L389 522L393 522L396 522L399 522L402 522L405 522L408 522L411 521L414 521L418 521L421 521L424 521L427 521L430 521L433 521L436 520L439 520L442 520L446 520L449 520L452 519L455 519L458 519L461 519L464 519L467 519L471 519L474 519L477 518L480 518L483 518L486 518L489 518L492 518L495 517L499 517L502 517L505 517L508 517L511 517L514 517L517 516L520 516L524 516L527 516L530 516L533 516L536 516L539 515L542 515L545 515L548 515L552 514L555 514L558 514L561 513L564 513L567 513L570 513L573 513L577 512L580 512L583 512L586 511L589 511L592 511L595 510L598 510L602 510L605 510L608 509L611 509L614 509L617 508L620 508L623 508L626 508L630 508L633 506L636 506L639 505L642 505L645 505L648 505L651 504L655 504L658 504L661 504L664 504L667 504" fill="none" stroke-width="1.5"></path></g><g><path stroke="#008860" stroke-linecap="round" d="M121 526L124 526L127 526L131 526L134 526L137 526L140 526L143 526L146 526L149 526L152 526L156 526L159 526L162 526L165 526L168 526L171 526L174 526L177 526L180 526L184 526L187 526L190 526L193 526L196 526L199 526L202 526L205 525L209 525L212 525L215 524L218 524L221 524L224 524L227 523L230 522L234 522L237 521L240 521L243 521L246 520L249 520L252 518L255 518L258 517L262 516L265 516L268 515L271 514L274 512L277 511L280 510L283 510L287 509L290 508L293 508L296 507L299 506L302 506L305 506L308 505L311 505L315 504L318 504L321 503L324 503L327 502L330 502L333 501L336 500L340 498L343 497L346 497L349 496L352 496L355 495L358 494L361 493L364 492L368 489L371 489L374 487L377 487L380 485L383 483L386 482L389 481L393 481L396 479L399 477L402 474L405 473L408 471L411 469L414 469L418 467L421 466L424 463L427 463L430 459L433 459L436 458L439 456L442 454L446 451L449 449L452 447L455 445L458 445L461 443L464 436L467 434L471 433L474 433L477 432L480 431L483 430L486 429L489 428L492 427L495 424L499 422L502 422L505 420L508 418L511 416L514 414L517 413L520 412L524 411L527 410L530 407L533 405L536 404L539 402L542 402L545 401L548 400L552 398L555 395L558 393L561 389L564 388L567 387L570 385L573 383L577 381L580 378L583 377L586 376L589 376L592 374L595 363L598 360L602 358L605 355L608 352L611 351L614 349L617 346L620 343L623 339L626 336L630 334L633 332L636 331L639 329L642 322L645 319L648 314L651 313L655 309L658 307L661 303L664 300L667 295" fill="none" stroke-width="1.5"></path></g><g><path stroke="#C45267" stroke-linecap="round" d="M99 526L106 526L112 526L115 526L118 526L121 526L127 526L131 526L134 526L137 526L140 526L143 525L146 525L149 525L152 525L156 524L159 524L162 523L165 522L168 522L171 521L174 521L177 520L180 519L184 518L187 517L190 515L193 515L196 515L199 513L202 512L205 511L209 510L212 509L215 509L218 508L221 508L224 507L227 506L230 505L234 504L237 504L240 503L243 503L246 502L249 502L252 501L255 500L258 500L262 499L265 499L268 498L271 498L274 497L277 496L280 495L283 494L287 494L290 493L293 492L296 491L299 489L302 489L305 488L308 487L311 485L315 484L318 482L321 480L324 479L327 477L330 476L333 474L336 472L340 470L343 468L346 466L349 464L352 462L355 460L358 458L361 455L364 453L368 451L371 449L374 447L377 446L380 444L383 442L386 441L389 439L393 438L396 436L399 434L402 431L405 428L408 425L411 423L414 421L418 419L421 416L424 412L427 409L430 407L433 405L436 403L439 401L442 398L446 394L449 389L452 384L455 381L458 378L461 374L464 370L467 365L471 360L474 356L477 353L480 349L483 345L486 341L489 336L492 332L495 327L499 325L502 320L505 317L508 312L511 307L514 301L517 297L520 293L524 289L527 286L530 281L533 275L536 269L539 264L542 261L545 256L548 252L552 247L555 241L558 236L561 231L564 228L567 223L570 219L573 215L577 210L580 204L583 200L586 197L589 192L592 189L595 185L598 181L602 176L605 172L608 170L611 166L614 163L617 158L620 153L623 149L626 145L630 141L633 137L636 133L639 128L642 122L645 117L648 113L651 110L655 105L658 102L661 98L664 94L667 90" fill="none" stroke-width="1.5"></path></g><g><path stroke="#CD2285" stroke-linecap="round" d="M93 526L106 526L109 526L112 526L115 526L118 526L121 526L124 526L127 526L131 526L134 526L137 526L140 526L143 526L146 526L149 526L152 526L156 526L159 526L162 526L165 526L168 526L171 526L174 526L177 526L180 526L184 526L187 526L190 526L193 526L196 526L199 525L202 525L205 525L209 525L212 525L215 525L218 525L221 525L224 525L227 525L230 525L234 525L237 525L240 524L243 524L246 524L249 524L252 524L255 524L258 524L262 524L265 524L268 524L271 523L274 523L277 522L280 522L283 522L287 522L290 522L293 522L296 521L299 521L302 521L305 521L308 521L311 520L315 520L318 520L321 519L324 519L327 519L330 519L333 519L336 518L340 518L343 518L346 517L349 517L352 517L355 517L358 516L361 516L364 515L368 515L371 515L374 514L377 514L380 513L383 513L386 512L389 511L393 511L396 510L399 510L402 509L405 509L408 508L411 508L414 508L418 507L421 507L424 506L427 505L430 504L433 504L436 503L439 502L442 501L446 500L449 499L452 498L455 498L458 497L461 496L464 495L467 495L471 494L474 493L477 493L480 493L483 492L486 491L489 491L492 490L495 490L499 490L502 489L505 488L508 488L511 487L514 486L517 486L520 486L524 486L527 485L530 485L533 484L536 484L539 483L542 483L545 483L548 482L552 481L555 481L558 481L561 480L564 480L567 480L570 479L573 479L577 478L580 478L583 477L586 477L589 476L592 475L595 475L598 474L602 473L605 472L608 471L611 471L614 470L617 469L620 468L623 467L626 466L630 465L633 464L636 463L639 462L642 460L645 332L648 331L651 330L655 328L658 327L661 326L664 324L667 322" fill="none" stroke-width="1.5"></path></g><g><path stroke="#9A5129" stroke-linecap="round" d="M90 526L93 526L96 526L99 526L103 526L106 526L109 525L112 525L115 525L118 525L121 525L124 525L127 523L131 523L134 523L137 523L140 522L143 522L146 522L149 519L152 519L156 519L159 518L162 517L165 516L168 515L171 515L174 515L177 511L180 511L184 510L187 510L190 508L193 508L196 508L199 508L202 503L205 502L209 500L212 498L215 496L218 494L221 493L224 492L227 491L230 489L234 487L237 485L240 484L243 482L246 482L249 480L252 479L255 478L258 475L262 473L265 472L268 471L271 470L274 468L277 466L280 464L283 462L287 462L290 460L293 459L296 457L299 456L302 454L305 453L308 452L311 451L315 450L318 448L321 446L324 443L327 441L330 439L333 437L336 435L340 433L343 430L346 427L349 425L352 422L355 420L358 417L361 414L364 410L368 405L371 403L374 401L377 399L380 395L383 392L386 389L389 384L393 381L396 378L399 376L402 373L405 369L408 365L411 361L414 357L418 354L421 352L424 348L427 345L430 340L433 335L436 332L439 329L442 327L446 324L449 319L452 314L455 309L458 305L461 302L464 298L467 294L471 290L474 286L477 283L480 280L483 277L486 275L489 272L492 269L495 266L499 263L502 260L505 258L508 256L511 254L514 251L517 249L520 246L524 245L527 243L530 242L533 239L536 237L539 234L542 232L545 230L548 228L552 226L555 224L558 221L561 219L564 217L567 214L570 211L573 210L577 207L580 203L583 199L586 196L589 194L592 191L595 190L598 187L602 185L605 181L608 178L611 176L614 175L617 172L620 170L623 168L626 165L630 163L633 161L636 159L639 157L642 155L645 154L648 152L651 150L655 149L658 147L661 146L664 145L667 143" fill="none" stroke-width="1.5"></path></g><g><path stroke="#3C4E66" stroke-linecap="round" d="M53 526L56 526L59 526L62 526L65 526L68 526L71 526L74 526L78 526L81 526L84 526L87 526L90 526L93 526L96 526L99 526L103 526L106 526L109 526L112 526L115 526L118 526L121 526L124 526L127 526L131 526L134 526L137 526L140 526L143 526L146 526L149 525L152 525L156 525L159 525L162 525L165 525L168 525L171 525L174 524L177 524L180 524L184 524L187 524L190 523L193 523L196 523L199 523L202 522L205 522L209 522L212 522L215 521L218 521L221 521L224 521L227 520L230 520L234 520L237 519L240 519L243 519L246 519L249 518L252 518L255 518L258 517L262 517L265 517L268 516L271 516L274 516L277 515L280 515L283 514L287 514L290 513L293 513L296 513L299 512L302 512L305 511L308 511L311 510L315 510L318 510L321 509L324 509L327 508L330 508L333 507L336 506L340 506L343 505L346 504L349 504L352 503L355 503L358 502L361 501L364 500L368 500L371 499L374 498L377 498L380 497L383 496L386 495L389 494L393 494L396 493L399 492L402 491L405 490L408 489L411 488L414 487L418 487L421 486L424 485L427 484L430 482L433 481L436 481L439 480L442 478L446 477L449 476L452 474L455 473L458 472L461 471L464 470L467 469L471 467L474 466L477 466L480 465L483 464L486 463L489 462L492 461L495 460L499 460L502 458L505 458L508 457L511 455L514 454L517 453L520 453L524 452L527 452L530 451L533 450L536 449L539 448L542 447L545 447L548 446L552 445L555 444L558 443L561 442L564 441L567 440L570 439L573 438L577 437L580 436L583 435L586 434L589 433L592 432L595 430L598 429L602 428L605 427L608 426L611 425L614 424L617 422L620 421L623 420L626 418L630 417L633 416L636 415L639 413L642 411L645 335L648 333L651 332L655 330L658 329L661 328L664 326L667 324" fill="none" stroke-width="1.5"></path></g><g><path stroke="#0F739C" stroke-linecap="round" d="M53 526L56 526L59 526L62 526L65 526L68 526L71 526L74 526L78 526L81 526L84 526L87 526L90 526L93 526L96 526L99 526L103 526L106 526L109 526L112 526L115 526L118 526L121 526L124 526L127 526L131 526L134 526L137 526L140 526L143 526L146 526L149 525L152 523L156 522L159 522L162 522L165 521L168 521L171 520L174 519L177 518L180 517L184 516L187 515L190 514L193 513L196 513L199 512L202 511L205 510L209 508L212 507L215 506L218 506L221 505L224 504L227 503L230 502L234 501L237 500L240 499L243 498L246 497L249 496L252 495L255 494L258 493L262 493L265 492L268 491L271 490L274 489L277 487L280 486L283 485L287 484L290 483L293 482L296 480L299 479L302 478L305 477L308 477L311 475L315 474L318 472L321 470L324 469L327 468L330 467L333 462L336 460L340 457L343 455L346 453L349 452L352 450L355 449L358 447L361 445L364 443L368 441L371 439L374 438L377 436L380 435L383 433L386 431L389 429L393 427L396 426L399 424L402 422L405 420L408 417L411 415L414 414L418 410L421 408L424 406L427 403L430 401L433 400L436 399L439 397L442 395L446 392L449 389L452 385L455 383L458 381L461 378L464 375L467 372L471 368L474 365L477 363L480 360L483 357L486 354L489 351L492 348L495 344L499 342L502 339L505 337L508 333L511 329L514 325L517 322L520 320L524 317L527 315L530 312L533 308L536 304L539 300L542 298L545 295L548 292L552 288L555 283L558 280L561 276L564 274L567 270L570 268L573 264L577 261L580 257L583 253L586 251L589 248L592 245L595 242L598 239L602 236L605 233L608 231L611 228L614 226L617 223L620 219L623 216L626 212L630 210L633 207L636 204L639 201L642 196L645 193L648 190L651 188L655 184L658 182L661 179L664 176L667 173" fill="none" stroke-width="1.5"></path></g></g></g></g><g class="SourcesFooter" style="fill:#777"><g style="fill:#777"><text font-size="12.60" x="15.0" y="582.5"><tspan x="15" y="582.48">Source: Official data collated by Our World in Data</tspan></text></g><text font-size="12.60" x="796.4" y="582.5"><tspan x="796.444" y="582.48"><a style="fill: #777;" class="cclogo" href="http://creativecommons.org/licenses/by/4.0/deed.en_US" target="_blank">CC BY</a></tspan></text></g></svg>
